M48
; DRILL file {KiCad 9.0.5} date 2025-10-19T17:47:31-0500
; FORMAT={-:-/ absolute / metric / decimal}
; #@! TF.CreationDate,2025-10-19T17:47:31-05:00
; #@! TF.GenerationSoftware,Kicad,Pcbnew,9.0.5
; #@! TF.FileFunction,Plated,1,2,PTH
FMAT,2
METRIC
; #@! TA.AperFunction,Plated,PTH,ViaDrill
T1C0.400
; #@! TA.AperFunction,Plated,PTH,ComponentDrill
T2C1.000
; #@! TA.AperFunction,Plated,PTH,ComponentDrill
T3C1.700
; #@! TA.AperFunction,Plated,PTH,ComponentDrill
T4C3.200
%
G90
G05
T1
X97.0Y-42.5
X97.0Y-50.5
X97.0Y-58.5
X97.0Y-66.5
X97.0Y-74.5
X97.0Y-82.5
X97.0Y-90.5
X97.0Y-98.5
X97.0Y-106.5
X105.0Y-42.5
X105.0Y-50.5
X105.0Y-58.5
X105.0Y-74.5
X105.0Y-82.5
X105.0Y-106.5
X113.0Y-42.5
X113.0Y-58.5
X113.0Y-66.5
X113.0Y-74.5
X113.0Y-82.5
X113.0Y-90.5
X113.0Y-98.5
X113.0Y-106.5
X121.0Y-42.5
X121.0Y-82.5
X121.0Y-106.5
X129.0Y-42.5
X129.0Y-58.5
X129.0Y-66.5
X129.0Y-74.5
X129.0Y-82.5
X129.0Y-90.5
X129.0Y-98.5
X129.0Y-106.5
X137.0Y-42.5
X137.0Y-58.5
X137.0Y-66.5
X137.0Y-74.5
X137.0Y-82.5
X137.0Y-90.5
X137.0Y-98.5
X137.0Y-106.5
X145.0Y-42.5
X145.0Y-98.5
X145.0Y-106.5
X153.0Y-42.5
X153.0Y-82.5
X153.0Y-90.5
X153.0Y-98.5
X153.0Y-106.5
X161.0Y-42.5
X161.0Y-58.5
X161.0Y-66.5
X161.0Y-74.5
X161.0Y-82.5
X161.0Y-90.5
X161.0Y-98.5
X161.0Y-106.5
X169.0Y-42.5
X169.0Y-50.5
X169.0Y-58.5
X169.0Y-66.5
X169.0Y-74.5
X169.0Y-82.5
X169.0Y-90.5
X169.0Y-98.5
T2
X106.82Y-51.42
X108.205Y-48.58
X109.59Y-51.42
X110.975Y-48.58
X112.36Y-51.42
X113.745Y-48.58
X115.13Y-51.42
X116.515Y-48.58
X117.9Y-51.42
X119.285Y-48.58
X120.67Y-51.42
X122.055Y-48.58
X123.44Y-51.42
X124.825Y-48.58
X126.21Y-51.42
X127.595Y-48.58
X128.98Y-51.42
X130.365Y-48.58
X131.75Y-51.42
X133.135Y-48.58
X134.52Y-51.42
X135.905Y-48.58
X137.29Y-51.42
X138.675Y-48.58
X140.06Y-51.42
X141.445Y-48.58
X142.83Y-51.42
X144.215Y-48.58
X145.6Y-51.42
X146.985Y-48.58
X148.37Y-51.42
X149.755Y-48.58
X151.14Y-51.42
X152.525Y-48.58
X153.91Y-51.42
X155.295Y-48.58
X156.68Y-51.42
T3
X105.0Y-65.0
X105.0Y-68.96
X105.0Y-76.5
X105.0Y-80.46
X105.0Y-88.0
X105.0Y-91.96
X105.0Y-99.5
X105.0Y-103.46
X122.0Y-65.0
X122.0Y-68.96
X122.0Y-76.5
X122.0Y-80.46
X122.0Y-88.0
X122.0Y-91.96
X122.0Y-99.5
X122.0Y-103.46
X139.0Y-65.0
X139.0Y-68.96
X139.0Y-76.5
X139.0Y-80.46
X139.0Y-88.0
X139.0Y-91.96
X139.0Y-99.5
X139.0Y-103.46
X156.0Y-65.0
X156.0Y-68.96
X156.0Y-76.5
X156.0Y-80.46
X156.0Y-88.0
X156.0Y-91.96
X156.0Y-99.5
X156.0Y-103.46
T4
X100.0Y-50.0
X163.5Y-50.0
M30
