G04 #@! TF.GenerationSoftware,KiCad,Pcbnew,9.0.5*
G04 #@! TF.CreationDate,2025-10-19T17:42:20-05:00*
G04 #@! TF.ProjectId,Digital IO Board Rev B,44696769-7461-46c2-9049-4f20426f6172,rev?*
G04 #@! TF.SameCoordinates,Original*
G04 #@! TF.FileFunction,Soldermask,Bot*
G04 #@! TF.FilePolarity,Negative*
%FSLAX46Y46*%
G04 Gerber Fmt 4.6, Leading zero omitted, Abs format (unit mm)*
G04 Created by KiCad (PCBNEW 9.0.5) date 2025-10-19 17:42:20*
%MOMM*%
%LPD*%
G01*
G04 APERTURE LIST*
G04 Aperture macros list*
%AMRoundRect*
0 Rectangle with rounded corners*
0 $1 Rounding radius*
0 $2 $3 $4 $5 $6 $7 $8 $9 X,Y pos of 4 corners*
0 Add a 4 corners polygon primitive as box body*
4,1,4,$2,$3,$4,$5,$6,$7,$8,$9,$2,$3,0*
0 Add four circle primitives for the rounded corners*
1,1,$1+$1,$2,$3*
1,1,$1+$1,$4,$5*
1,1,$1+$1,$6,$7*
1,1,$1+$1,$8,$9*
0 Add four rect primitives between the rounded corners*
20,1,$1+$1,$2,$3,$4,$5,0*
20,1,$1+$1,$4,$5,$6,$7,0*
20,1,$1+$1,$6,$7,$8,$9,0*
20,1,$1+$1,$8,$9,$2,$3,0*%
G04 Aperture macros list end*
%ADD10RoundRect,0.250001X1.099999X-1.099999X1.099999X1.099999X-1.099999X1.099999X-1.099999X-1.099999X0*%
%ADD11C,2.700000*%
%ADD12C,3.200000*%
%ADD13C,4.000000*%
%ADD14R,1.600000X1.600000*%
%ADD15C,1.600000*%
G04 APERTURE END LIST*
D10*
X139000000Y-91960000D03*
D11*
X139000000Y-88000000D03*
D12*
X169000000Y-40000000D03*
X94500000Y-40000000D03*
D10*
X156000000Y-68960000D03*
D11*
X156000000Y-65000000D03*
D10*
X156000000Y-103460000D03*
D11*
X156000000Y-99500000D03*
D10*
X122000000Y-68960000D03*
D11*
X122000000Y-65000000D03*
D10*
X105000000Y-68960000D03*
D11*
X105000000Y-65000000D03*
D12*
X94500000Y-106000000D03*
X169000000Y-106000000D03*
D10*
X156000000Y-80460000D03*
D11*
X156000000Y-76500000D03*
D13*
X163500000Y-50000000D03*
X100000000Y-50000000D03*
D14*
X106820000Y-51420000D03*
D15*
X109590000Y-51420000D03*
X112360000Y-51420000D03*
X115130000Y-51420000D03*
X117900000Y-51420000D03*
X120670000Y-51420000D03*
X123440000Y-51420000D03*
X126210000Y-51420000D03*
X128980000Y-51420000D03*
X131750000Y-51420000D03*
X134520000Y-51420000D03*
X137290000Y-51420000D03*
X140060000Y-51420000D03*
X142830000Y-51420000D03*
X145600000Y-51420000D03*
X148370000Y-51420000D03*
X151140000Y-51420000D03*
X153910000Y-51420000D03*
X156680000Y-51420000D03*
X108205000Y-48580000D03*
X110975000Y-48580000D03*
X113745000Y-48580000D03*
X116515000Y-48580000D03*
X119285000Y-48580000D03*
X122055000Y-48580000D03*
X124825000Y-48580000D03*
X127595000Y-48580000D03*
X130365000Y-48580000D03*
X133135000Y-48580000D03*
X135905000Y-48580000D03*
X138675000Y-48580000D03*
X141445000Y-48580000D03*
X144215000Y-48580000D03*
X146985000Y-48580000D03*
X149755000Y-48580000D03*
X152525000Y-48580000D03*
X155295000Y-48580000D03*
D10*
X105000000Y-103460000D03*
D11*
X105000000Y-99500000D03*
D10*
X139000000Y-80460000D03*
D11*
X139000000Y-76500000D03*
D10*
X139000000Y-68960000D03*
D11*
X139000000Y-65000000D03*
D10*
X105000000Y-91960000D03*
D11*
X105000000Y-88000000D03*
D10*
X105000000Y-80460000D03*
D11*
X105000000Y-76500000D03*
D10*
X139000000Y-103460000D03*
D11*
X139000000Y-99500000D03*
D10*
X122000000Y-80460000D03*
D11*
X122000000Y-76500000D03*
D10*
X156000000Y-91960000D03*
D11*
X156000000Y-88000000D03*
D10*
X122000000Y-103460000D03*
D11*
X122000000Y-99500000D03*
D10*
X122000000Y-91960000D03*
D11*
X122000000Y-88000000D03*
M02*
