M48
; DRILL file {KiCad 9.0.5} date 2025-10-19T17:51:32-0500
; FORMAT={-:-/ absolute / metric / decimal}
; #@! TF.CreationDate,2025-10-19T17:51:32-05:00
; #@! TF.GenerationSoftware,Kicad,Pcbnew,9.0.5
; #@! TF.FileFunction,Plated,1,2,PTH
FMAT,2
METRIC
; #@! TA.AperFunction,Plated,PTH,ViaDrill
T1C0.400
; #@! TA.AperFunction,Plated,PTH,ComponentDrill
T2C0.800
; #@! TA.AperFunction,Plated,PTH,ComponentDrill
T3C1.000
; #@! TA.AperFunction,Plated,PTH,ComponentDrill
T4C2.700
; #@! TA.AperFunction,Plated,PTH,ComponentDrill
T5C3.200
%
G90
G05
T1
X23.59Y-31.5
X23.59Y-39.5
X23.59Y-47.5
X23.59Y-103.5
X23.59Y-111.5
X23.59Y-119.5
X23.59Y-127.5
X23.59Y-135.5
X23.59Y-143.5
X23.59Y-151.5
X23.59Y-159.5
X23.59Y-167.5
X23.59Y-175.5
X31.59Y-23.5
X31.59Y-31.5
X31.59Y-39.5
X31.59Y-47.5
X31.59Y-55.5
X31.59Y-63.5
X31.59Y-71.5
X31.59Y-95.5
X31.59Y-135.5
X31.59Y-143.5
X31.59Y-151.5
X31.59Y-159.5
X31.59Y-167.5
X31.59Y-175.5
X39.59Y-23.5
X39.59Y-31.5
X39.59Y-39.5
X39.59Y-47.5
X39.59Y-55.5
X39.59Y-63.5
X39.59Y-87.5
X39.59Y-119.5
X39.59Y-143.5
X39.59Y-151.5
X39.59Y-159.5
X39.59Y-167.5
X39.59Y-175.5
X47.59Y-23.5
X47.59Y-55.5
X47.59Y-175.5
X55.59Y-23.5
X55.59Y-31.5
X55.59Y-39.5
X55.59Y-63.5
X55.59Y-71.5
X55.59Y-79.5
X55.59Y-111.5
X55.59Y-119.5
X55.59Y-135.5
X55.59Y-143.5
X55.59Y-151.5
X55.59Y-159.5
X55.59Y-175.5
X63.59Y-23.5
X63.59Y-31.5
X63.59Y-47.5
X63.59Y-63.5
X63.59Y-71.5
X63.59Y-87.5
X63.59Y-111.5
X63.59Y-127.5
X63.59Y-135.5
X63.59Y-143.5
X63.59Y-151.5
X63.59Y-167.5
X63.59Y-175.5
X71.59Y-23.5
X71.59Y-31.5
X71.59Y-39.5
X71.59Y-63.5
X71.59Y-71.5
X71.59Y-79.5
X71.59Y-111.5
X71.59Y-119.5
X71.59Y-135.5
X71.59Y-151.5
X71.59Y-159.5
X71.59Y-175.5
X79.59Y-23.5
X79.59Y-39.5
X79.59Y-63.5
X79.59Y-79.5
X79.59Y-103.5
X79.59Y-119.5
X79.59Y-135.5
X79.59Y-143.5
X79.59Y-159.5
X79.59Y-175.5
X87.59Y-23.5
X87.59Y-31.5
X87.59Y-47.5
X87.59Y-63.5
X87.59Y-71.5
X87.59Y-87.5
X87.59Y-103.5
X87.59Y-111.5
X87.59Y-127.5
X87.59Y-135.5
X87.59Y-143.5
X87.59Y-151.5
X87.59Y-167.5
X87.59Y-175.5
X95.59Y-23.5
X95.59Y-55.5
X95.59Y-63.5
X95.59Y-79.5
X95.59Y-103.5
X95.59Y-111.5
X95.59Y-119.5
X95.59Y-135.5
X95.59Y-143.5
X95.59Y-151.5
X95.59Y-159.5
X95.59Y-175.5
X103.59Y-23.5
X103.59Y-55.5
X103.59Y-63.5
X103.59Y-103.5
X103.59Y-135.5
X103.59Y-143.5
X103.59Y-175.5
X111.59Y-23.5
X111.59Y-31.5
X111.59Y-47.5
X111.59Y-55.5
X111.59Y-63.5
X111.59Y-71.5
X111.59Y-95.5
X111.59Y-103.5
X111.59Y-111.5
X111.59Y-127.5
X111.59Y-135.5
X111.59Y-143.5
X111.59Y-151.5
X111.59Y-167.5
X111.59Y-175.5
X119.59Y-23.5
X119.59Y-31.5
X119.59Y-39.5
X119.59Y-47.5
X119.59Y-55.5
X119.59Y-71.5
X119.59Y-79.5
X119.59Y-87.5
X119.59Y-95.5
X119.59Y-111.5
X119.59Y-119.5
X119.59Y-127.5
X119.59Y-135.5
X119.59Y-151.5
X119.59Y-159.5
X119.59Y-167.5
X119.59Y-175.5
X127.59Y-23.5
X127.59Y-55.5
X127.59Y-63.5
X127.59Y-95.5
X127.59Y-103.5
X127.59Y-135.5
X127.59Y-143.5
X127.59Y-175.5
X135.59Y-31.5
X135.59Y-47.5
X135.59Y-55.5
X135.59Y-63.5
X135.59Y-71.5
X135.59Y-79.5
X135.59Y-87.5
X135.59Y-95.5
X135.59Y-103.5
X135.59Y-111.5
X135.59Y-119.5
X135.59Y-127.5
X135.59Y-135.5
X135.59Y-143.5
X135.59Y-151.5
X135.59Y-159.5
X135.59Y-167.5
X135.59Y-175.5
X143.59Y-23.5
X143.59Y-31.5
X143.59Y-39.5
X143.59Y-47.5
X143.59Y-55.5
X143.59Y-63.5
X143.59Y-71.5
X143.59Y-79.5
X143.59Y-87.5
X143.59Y-95.5
X143.59Y-103.5
X143.59Y-111.5
X143.59Y-119.5
X143.59Y-127.5
X143.59Y-135.5
X143.59Y-143.5
X143.59Y-151.5
X143.59Y-159.5
X143.59Y-167.5
X143.59Y-175.5
T2
X62.5Y-30.0
X62.5Y-40.16
X62.5Y-70.0
X62.5Y-80.16
X62.5Y-110.0
X62.5Y-120.16
X62.5Y-150.0
X62.5Y-160.16
X87.5Y-30.0
X87.5Y-40.16
X87.5Y-70.0
X87.5Y-80.16
X87.5Y-110.0
X87.5Y-120.16
X87.5Y-150.0
X87.5Y-160.16
X112.5Y-30.0
X112.5Y-40.16
X112.5Y-70.0
X112.5Y-80.16
X112.5Y-110.0
X112.5Y-120.16
X112.5Y-150.0
X112.5Y-160.16
X138.5Y-30.0
X138.5Y-40.16
X138.5Y-70.0
X138.5Y-80.16
X138.5Y-110.0
X138.5Y-120.16
X138.5Y-150.0
X138.5Y-160.16
T3
X25.0Y-72.78
X25.0Y-75.55
X25.0Y-78.32
X25.0Y-81.09
X25.0Y-83.86
X25.0Y-86.63
X25.0Y-89.4
X25.0Y-92.17
X25.0Y-94.94
X25.0Y-97.71
X25.0Y-100.48
X25.0Y-103.25
X25.0Y-106.02
X25.0Y-108.79
X25.0Y-111.56
X25.0Y-114.33
X25.0Y-117.1
X25.0Y-119.87
X25.0Y-122.64
X27.84Y-74.165
X27.84Y-76.935
X27.84Y-79.705
X27.84Y-82.475
X27.84Y-85.245
X27.84Y-88.015
X27.84Y-90.785
X27.84Y-93.555
X27.84Y-96.325
X27.84Y-99.095
X27.84Y-101.865
X27.84Y-104.635
X27.84Y-107.405
X27.84Y-110.175
X27.84Y-112.945
X27.84Y-115.715
X27.84Y-118.485
X27.84Y-121.255
X48.232Y-28.232
X48.232Y-31.768
X48.232Y-68.232
X48.232Y-71.768
X48.232Y-108.232
X48.232Y-111.768
X48.232Y-148.232
X48.232Y-151.768
X51.768Y-28.232
X51.768Y-31.768
X51.768Y-68.232
X51.768Y-71.768
X51.768Y-108.232
X51.768Y-111.768
X51.768Y-148.232
X51.768Y-151.768
X73.232Y-28.232
X73.232Y-31.768
X73.232Y-68.232
X73.232Y-71.768
X73.232Y-108.232
X73.232Y-111.768
X73.232Y-148.232
X73.232Y-151.768
X76.768Y-28.232
X76.768Y-31.768
X76.768Y-68.232
X76.768Y-71.768
X76.768Y-108.232
X76.768Y-111.768
X76.768Y-148.232
X76.768Y-151.768
X98.232Y-28.232
X98.232Y-31.768
X98.232Y-68.232
X98.232Y-71.768
X98.232Y-108.232
X98.232Y-111.768
X98.232Y-148.232
X98.232Y-151.768
X101.768Y-28.232
X101.768Y-31.768
X101.768Y-68.232
X101.768Y-71.768
X101.768Y-108.232
X101.768Y-111.768
X101.768Y-148.232
X101.768Y-151.768
X123.232Y-28.232
X123.232Y-31.768
X123.232Y-68.232
X123.232Y-71.768
X123.232Y-108.232
X123.232Y-111.768
X123.232Y-148.232
X123.232Y-151.768
X126.768Y-28.232
X126.768Y-31.768
X126.768Y-68.232
X126.768Y-71.768
X126.768Y-108.232
X126.768Y-111.768
X126.768Y-148.232
X126.768Y-151.768
T4
X48.0Y-50.0
X48.0Y-90.0
X48.0Y-130.0
X48.0Y-170.0
X53.0Y-50.0
X53.0Y-90.0
X53.0Y-130.0
X53.0Y-170.0
X73.0Y-50.0
X73.0Y-90.0
X73.0Y-130.0
X73.0Y-170.0
X78.0Y-50.0
X78.0Y-90.0
X78.0Y-130.0
X78.0Y-170.0
X98.0Y-50.0
X98.0Y-90.0
X98.0Y-130.0
X98.0Y-170.0
X103.0Y-50.0
X103.0Y-90.0
X103.0Y-130.0
X103.0Y-170.0
X123.0Y-50.0
X123.0Y-90.0
X123.0Y-130.0
X123.0Y-170.0
X128.0Y-50.0
X128.0Y-90.0
X128.0Y-130.0
X128.0Y-170.0
T5
X26.42Y-65.96
X26.42Y-129.46
M30
